<svg id="Layer_1" data-name="Layer 1" xmlns="http://www.w3.org/2000/svg" viewBox="0 0 460 90"><defs><style>.cls-1{fill:#9d6edb;}</style></defs><path class="cls-1" d="M60.7,62.47c0-2.9-1.76-4.88-5.71-4.88H48v9.79h7C58.35,67.39,60.7,66,60.7,62.47Zm-5.79-18H48v8.32h6.9c2.58,0,4.41-1.29,4.41-4.19S57.43,44.45,54.91,44.45Zm6.76,10.48a7.75,7.75,0,0,1,4.69,7.58c0,6.17-4.19,9.84-11.26,9.84h-12c-.41,0-.64-.23-.64-.69V40.16c0-.45.23-.69.64-.69h12c6.21,0,9.84,3.32,9.84,9A7.25,7.25,0,0,1,61.67,54.93Z"/><path class="cls-1" d="M92.48,67.3c.46,0,.69.23.69.64v3.72a.61.61,0,0,1-.69.69H72.8c-.4,0-.64-.23-.64-.69V40.16a.6.6,0,0,1,.64-.69h19a.62.62,0,0,1,.69.69v3.72c0,.41-.24.64-.69.64H77.72v8.61H90.64a.61.61,0,0,1,.69.69v3.67a.61.61,0,0,1-.69.69H77.72v9.1H92.48Z"/><path class="cls-1" d="M114.79,59.85l-4.65-14.29H110l-4.65,14.29ZM95.66,71.57,106.7,40a.73.73,0,0,1,.74-.55h5.24a.73.73,0,0,1,.73.55l11,31.55c.14.5-.1.78-.55.78H119.4a.76.76,0,0,1-.78-.55l-2.25-6.94H103.76l-2.25,6.94a.77.77,0,0,1-.78.55H96.22C95.71,72.35,95.52,72.09,95.66,71.57Z"/><path class="cls-1" d="M148.05,40.16v3.77a.62.62,0,0,1-.69.64h-9.25V71.66c0,.46-.23.69-.64.69h-4.24c-.4,0-.64-.23-.64-.69V44.57H123.3a.62.62,0,0,1-.69-.64V40.16a.64.64,0,0,1,.69-.69h24.06A.64.64,0,0,1,148.05,40.16Z"/><path class="cls-1" d="M172.7,67.66c4.79,0,7.27-2.63,7.27-7.54V51.7c0-5-2.48-7.58-7.27-7.58s-7.27,2.63-7.27,7.58v8.42C165.43,65.05,167.91,67.66,172.7,67.66Zm0,5.26c-8.14,0-12.92-4.74-12.92-12.78V51.67c0-8.05,4.78-12.75,12.92-12.75s12.92,4.7,12.92,12.75v8.47C185.62,68.18,180.83,72.92,172.7,72.92Z"/><path class="cls-1" d="M212.26,44.57H197.59v9.57h12.73c.41,0,.64.24.64.69v3.68c0,.45-.23.69-.64.69H197.59V71.66a.6.6,0,0,1-.65.69h-4.23a.6.6,0,0,1-.65-.69V40.16a.61.61,0,0,1,.65-.69h19.55a.62.62,0,0,1,.69.69v3.77C213,44.35,212.71,44.57,212.26,44.57Z"/><path class="cls-1" d="M245.05,50.69c0-4.15-2.07-6.07-6.53-6.07h-6.11V56.8h6.11C243,56.82,245.05,54.88,245.05,50.69Zm5.66,0c0,7.08-4.29,11.26-11.55,11.26h-6.75v9.7a.6.6,0,0,1-.64.69h-4.24c-.41,0-.64-.24-.64-.69V40.16c0-.45.23-.69.64-.69h11.63C246.42,39.47,250.71,43.71,250.71,50.69Z"/><path class="cls-1" d="M261.47,55.38h5.81c4.27,0,6.3-1.7,6.3-5.38s-2-5.43-6.3-5.43h-5.81ZM273.61,71.9l-8.06-11.55h-4.09V71.66c0,.46-.24.69-.64.69h-4.24a.6.6,0,0,1-.65-.69V40.16a.61.61,0,0,1,.65-.69h10.66c7.54,0,12,3.91,12,10.48,0,5-2.8,8.51-7.64,9.79L280,71.52c.33.5.09.83-.41.83h-5.19A.82.82,0,0,1,273.61,71.9Z"/><path class="cls-1" d="M297.06,67.66c4.79,0,7.27-2.63,7.27-7.54V51.7c0-5-2.48-7.58-7.27-7.58s-7.28,2.63-7.28,7.58v8.42C289.8,65.05,292.29,67.66,297.06,67.66Zm0,5.26c-8.14,0-12.92-4.74-12.92-12.78V51.67c0-8.05,4.78-12.75,12.92-12.75S310,43.62,310,51.67v8.47C310,68.18,305.21,72.92,297.06,72.92Z"/><path class="cls-1" d="M328.25,72.92c-6.76,0-12.83-3.73-12.83-11.78V50.66c0-8.06,5.84-11.74,12.52-11.74A21.33,21.33,0,0,1,339,42a.65.65,0,0,1,.24,1l-2.3,3.17c-.24.38-.55.38-.93.19a15.58,15.58,0,0,0-8.08-2.16c-4,0-6.9,2.11-6.9,6.62V61.11c0,4.55,3.31,6.58,7.27,6.58a10.82,10.82,0,0,0,6.45-1.94v-7h-6.17a.6.6,0,0,1-.64-.69V54.49c0-.46.24-.69.64-.69h10.95a.6.6,0,0,1,.65.69V67.41c0,.37-.05.59-.24.73A15.89,15.89,0,0,1,328.25,72.92Z"/><path class="cls-1" d="M352,55.38h5.8c4.28,0,6.31-1.7,6.31-5.38s-2-5.43-6.31-5.43H352ZM364.12,71.9l-8.06-11.55H352V71.66a.6.6,0,0,1-.65.69h-4.23a.6.6,0,0,1-.65-.69V40.16a.61.61,0,0,1,.65-.69h10.66c7.54,0,11.95,3.91,11.95,10.48,0,5-2.8,8.51-7.63,9.79l8.42,11.78c.33.5.09.83-.41.83h-5.19A.84.84,0,0,1,364.12,71.9Z"/><path class="cls-1" d="M396.09,67.3c.46,0,.69.23.69.64v3.72a.61.61,0,0,1-.69.69H376.41c-.4,0-.64-.23-.64-.69V40.16a.6.6,0,0,1,.64-.69h19a.61.61,0,0,1,.69.69v3.72c0,.41-.23.64-.69.64H381.33v8.61h12.92a.61.61,0,0,1,.69.69v3.67a.61.61,0,0,1-.69.69H381.33v9.1h14.76Z"/><path class="cls-1" d="M413,72.92c-4.6,0-8-1.47-11.73-4.42a.68.68,0,0,1-.14-1l2.3-3.22a.61.61,0,0,1,.92-.14c3,2.16,5.74,3.41,8.87,3.49,3.36,0,6.66-1.42,6.66-4.55,0-3.32-3.45-4.15-7.44-5-4.83-1-11.19-3.22-11.19-10.07,0-6.4,5.67-9.15,12.28-9.15,4,0,7.09,1.11,10.81,3.63a.6.6,0,0,1,.19.92l-2.21,3.18c-.23.36-.59.36-1,.14a15.83,15.83,0,0,0-8.23-2.68c-4,0-6.26,1.57-6.26,4,0,2.94,2.94,3.73,7,4.65C419.21,54,425.56,55.74,425.56,63,425.58,69.91,419.68,72.92,413,72.92Z"/><path class="cls-1" d="M441.35,72.92c-4.6,0-8-1.47-11.73-4.42a.68.68,0,0,1-.14-1l2.3-3.22a.61.61,0,0,1,.92-.14c3,2.16,5.74,3.41,8.87,3.49,3.36,0,6.66-1.42,6.66-4.55,0-3.32-3.46-4.15-7.44-5-4.84-1-11.19-3.22-11.19-10.07,0-6.4,5.66-9.15,12.28-9.15,4,0,7.09,1.11,10.81,3.63a.6.6,0,0,1,.19.92l-2.21,3.18c-.23.36-.59.36-1,.14a15.8,15.8,0,0,0-8.23-2.68c-4,0-6.25,1.57-6.25,4,0,2.94,2.94,3.73,7,4.65C447.59,54,453.94,55.74,453.94,63,454,69.91,448.08,72.92,441.35,72.92Z"/><rect class="cls-1" x="2.86" y="28.38" width="3.13" height="51.68"/></svg>